<?xml version="1.0" encoding="utf-8"?>
<!-- Generator: Adobe Illustrator 24.1.2, SVG Export Plug-In . SVG Version: 6.00 Build 0)  -->
<svg version="1.1" id="Layer_1" xmlns="http://www.w3.org/2000/svg" xmlns:xlink="http://www.w3.org/1999/xlink" x="0px" y="0px"
	 viewBox="0 0 150 150" style="enable-background:new 0 0 150 150;" xml:space="preserve">
<style type="text/css">
	.st0{fill:#E5F2FB;}
	.st1{fill:#EE2424;}
	.st2{opacity:8.000000e-02;fill:#411211;}
	.st3{fill:#5A8DCA;}
	.st4{opacity:0.56;}
	.st5{fill:#FFFFFF;}
</style>
<g>
	<circle class="st0" cx="75" cy="75" r="63"/>
	<path d="M75,13.5c34,0,61.5,27.6,61.5,61.5S109,136.5,75,136.5S13.5,109,13.5,75S41,13.5,75,13.5 M75,10.5
		c-35.6,0-64.5,29-64.5,64.5s29,64.5,64.5,64.5s64.5-29,64.5-64.5S110.6,10.5,75,10.5L75,10.5z"/>
</g>
<path class="st1" d="M90.8,54C97.5,41.3,99.3,29,99.3,29c0,0.1-9.1,8.4-15.8,21C76.8,62.8,73,73.9,75,75S84.1,66.6,90.8,54z"/>
<path class="st2" d="M99.3,29c0,0-1.8,12.2-8.5,24.9C84.1,66.6,77,76.1,75,75L99.3,29z"/>
<circle class="st3" cx="75" cy="75" r="7.4"/>
<g class="st4">
	<path class="st5" d="M116,29.1c-8.8-4.4-18.6-6.9-29.1-6.9c-35.8,0-64.9,29-64.9,64.9c0,10.1,2.3,19.6,6.4,28.1
		c-9.3-10.8-15-24.8-15-40.2C13.5,41,41,13.5,75,13.5C90.8,13.5,105.1,19.4,116,29.1z"/>
</g>
<path class="st2" d="M82.5,75c0,4.1-3.3,7.5-7.5,7.5c-1.6,0-3-0.5-4.2-1.3c5-1.3,9-5,10.7-9.8C82.1,72.4,82.5,73.7,82.5,75z"/>
</svg>
